{"title":"Project Nim - 2011 - DVDRiP.XviD.AC3","uid":6898119,"size":1469444275,"categoryP":"video","categoryS":"movies","magnet":"?xt=urn:btih:6c4cb6ee0bc8453dcc9f3b4cd1a9fec7a4c82f37&amp;dn=Project+Nim+-+2011+-+DVDRiP.XviD.AC3&amp;tr=udp%3A%2F%2Ftracker.openbittorrent.com%3A80&amp;tr=udp%3A%2F%2Fopen.demonii.com%3A1337&amp;tr=udp%3A%2F%2Ftracker.coppersurfer.tk%3A6969&amp;tr=udp%3A%2F%2Fexodus.desync.com%3A6969","seeders":4,"leechers":2,"uploader":"godcanjudgeme","files":-1,"time":1324288073,"description":"Project Nim - 2011 - DVDRiP.XviD.AC3\n====================================\n &lt;a href=&quot;\nhttp://www.project-nim.com/&quot; rel=&quot;nofollow&quot; target=&quot;_NEW&quot;&gt;\nhttp://www.project-nim.com/&lt;/a&gt;\n &lt;a href=&quot;\nhttp://www.imdb.com/title/tt1814836/&quot; rel=&quot;nofollow&quot; target=&quot;_NEW&quot;&gt;\nhttp://www.imdb.com/title/tt1814836/&lt;/a&gt;\n &lt;a href=&quot;\nhttps://en.wikipedia.org/wiki/Nim_Chimpsky&quot; rel=&quot;nofollow&quot; target=&quot;_NEW&quot;&gt;\nhttps://en.wikipedia.org/wiki/Nim_Chimpsky&lt;/a&gt;\n\n==========\n\nFrom the Oscar-winning team behind MAN ON WIRE comes the story of \nNim, the chimpanzee who in the 1970s became the focus of a \nlandmark experiment which aimed to show that an ape could learn \nto communicate with language if raised and nurtured like a human \nchild. Following Nim's extraordinary journey through human \nsociety, and the enduring impact he makes on the people he meets \nalong the way, the film is an unflinching and unsentimental \nbiography of an animal we tried to make human. What we learn \nabout his true nature - and indeed our own - is comic, revealing \nand profoundly unsettling.\n\n==========\n\nSource: DVD\nSize: 1.38 GB\nGenre: Documentary\nSubs: None\nIMDB Rating: 7.2/10 from 577 users\nRT Critics: 8.1/10\nDirected By: James Marsh\nStarring: Bob Angelini, Nim Chimpsky and Bern Cohen\n\n==========\n\nGeneral\n\nFormat                           : AVI\nFormat/Info                      : Audio Video Interleave\nFile size                        : 1.37 GiB\nDuration                         : 1h 39mn\nOverall bit rate                 : 1 965 Kbps\nWriting application              : VirtualDubMod 1.5.4.1 (build \n\n2178/release)\nWriting library                  : VirtualDubMod build \n\n2178/release\n\nVideo\n\nID                               : 0\nFormat                           : MPEG-4 Visual\nFormat profile                   : Advanced Simple@L5\nFormat settings, BVOP            : 1\nFormat settings, QPel            : No\nFormat settings, GMC             : No warppoints\nFormat settings, Matrix          : Custom\nCodec ID                         : XVID\nCodec ID/Hint                    : XviD\nDuration                         : 1h 39mn\nBit rate                         : 1 510 Kbps\nWidth                            : 720 pixels\nHeight                           : 416 pixels\nDisplay aspect ratio             : 16:9\nFrame rate                       : 23.976 fps\nColor space                      : YUV\nChroma subsampling               : 4:2:0\nBit depth                        : 8 bits\nScan type                        : Progressive\nCompression mode                 : Lossy\nBits/(Pixel*Frame)               : 0.210\nStream size                      : 1.05 GiB (77%)\nWriting library                  : XviD 1.2.1 (UTC 2008-12-04)\n\nAudio\n\nID                               : 1\nFormat                           : AC-3\nFormat/Info                      : Audio Coding 3\nMode extension                   : CM (complete main)\nCodec ID                         : 2000\nDuration                         : 1h 39mn\nBit rate mode                    : Constant\nBit rate                         : 448 Kbps\nChannel(s)                       : 6 channels\nChannel positions                : Front: L C R, Side: L R, LFE\nSampling rate                    : 48.0 KHz\nBit depth                        : 16 bits\nCompression mode                 : Lossy\nStream size                      : 319 MiB (23%)\nAlignment                        : Split accross interleaves\nInterleave, duration             : 96 ms (2.30 video frames)\nInterleave, preload duration     : 96 ms\nLanguage                         : English\n\n","torrent":{"xt":"urn:btih:6c4cb6ee0bc8453dcc9f3b4cd1a9fec7a4c82f37","amp;dn":"Project+Nim+-+2011+-+DVDRiP.XviD.AC3","amp;tr":["udp%3A%2F%2Ftracker.openbittorrent.com%3A80","udp%3A%2F%2Fopen.demonii.com%3A1337","udp%3A%2F%2Ftracker.coppersurfer.tk%3A6969","udp%3A%2F%2Fexodus.desync.com%3A6969"],"infoHash":"6c4cb6ee0bc8453dcc9f3b4cd1a9fec7a4c82f37","infoHashBuffer":{"type":"Buffer","data":[108,76,182,238,11,200,69,61,204,159,59,76,209,169,254,199,164,200,47,55]},"announce":[],"urlList":[]}}